<?xml version="1.0" encoding="UTF-8" standalone="no"?>
<svg
   xmlns:dc="http://purl.org/dc/elements/1.1/"
   xmlns:cc="http://creativecommons.org/ns#"
   xmlns:rdf="http://www.w3.org/1999/02/22-rdf-syntax-ns#"
   xmlns:svg="http://www.w3.org/2000/svg"
   xmlns="http://www.w3.org/2000/svg"
   version="1.1"
   width="1024"
   height="2048"
   id="svg3355">
  <defs
     id="defs3357" />
  <metadata
     id="metadata3360">
    <rdf:RDF>
      <cc:Work
         rdf:about="">
        <dc:format>image/svg+xml</dc:format>
        <dc:type
           rdf:resource="http://purl.org/dc/dcmitype/StillImage" />
        <dc:title></dc:title>
      </cc:Work>
    </rdf:RDF>
  </metadata>
  <path
     d="M 535,0 425,224 v 32 H 553 L 681,32 V 0 Z M 112,144 C 50.13814,144 0,194.1419 0,256 c 0,61.8581 50.13673,112 112,112 61.86327,0 112,-50.1353 112,-112 0,-61.8647 -50.13814,-112 -112,-112 z m 800,0 c -61.8619,0 -112,50.1419 -112,112 0,61.8581 50.1367,112 112,112 61.8632,0 112,-50.1353 112,-112 0,-61.8647 -50.1382,-112 -112,-112 z"
     id="path5023"
     style="display:inline;fill:#000000;fill-opacity:1;stroke:none" />
</svg>
